<svg xmlns="http://www.w3.org/2000/svg" xmlns:xlink="http://www.w3.org/1999/xlink"><symbol id="icon-burger" viewBox="0 0 76.17 68.96">
<g>
	<path d="M71.91,46.04H4.25C1.91,46.04,0,47.96,0,50.29v3.45C0,56.09,1.91,58,4.25,58h0.96v1.04c0,5.46,4.46,9.92,9.92,9.92h45.91
		c5.46,0,9.92-4.46,9.92-9.92V58h0.96c2.34,0,4.25-1.91,4.25-4.25v-3.45C76.17,47.96,74.25,46.04,71.91,46.04z M67.96,59.04
		c0,3.82-3.1,6.92-6.92,6.92H15.13c-3.82,0-6.92-3.1-6.92-6.92V58h59.75V59.04z M73.17,53.75c0,0.68-0.57,1.25-1.25,1.25H4.25
		C3.57,55,3,54.43,3,53.75v-3.45c0-0.68,0.57-1.25,1.25-1.25h67.66c0.68,0,1.25,0.57,1.25,1.25V53.75z"/>
	<polygon points="16.16,37.86 21.63,41.86 27.11,37.86 32.59,41.86 38.07,37.86 43.55,41.86 49.03,37.86 54.5,41.86 59.99,37.86
		65.47,41.86 71.84,37.21 70.07,34.79 65.47,38.14 59.99,34.14 54.5,38.14 49.03,34.14 43.55,38.14 38.07,34.14 32.59,38.14
		27.11,34.14 21.64,38.14 16.16,34.14 10.69,38.14 6.09,34.79 4.32,37.21 10.69,41.86 	"/>
	<path d="M70.89,31.09c0.04-0.61,0.05-2.62,0.04-3C70.24,12.48,55.8,0,38.08,0C20.36,0,5.92,12.48,5.24,28.09
		c-0.02,0.38,0,2.39,0.04,3H70.89z M38.08,3c16.03,0,29.15,11.15,29.84,25.09H8.24C8.93,14.15,22.05,3,38.08,3z"/>
	<circle cx="38.08" cy="15.04" r="2"/>
	<circle cx="30.08" cy="10.08" r="2"/>
	<circle cx="46.08" cy="10.08" r="2"/>
</g>
</symbol><symbol id="icon-fb" viewBox="0 0 8.67 18.94">
<path d="M6.28,3.36c0.8,0,1.6,0,2.4,0c0-1.12,0-2.24,0-3.36C7.71,0,6.75,0,5.79,0C2.66,0.18,1.54,2.39,1.95,6.11H0v3.52h1.96
	c0,3.1,0,6.21,0,9.31c1.28,0,2.56,0,3.84,0c0-3.1,0-6.21,0-9.31h2.86V6.11H5.79C5.77,5.07,5.75,3.71,6.28,3.36z"/>
</symbol><symbol id="icon-gift" viewBox="0 0 63 75.08">
<path d="M60.17,22.23h-0.1h-24.3c13.6-6.81,14.69-11.11,14.19-13.52c-1.14-3.92-5.6-6.94-9.85-5.34
	c-5.48,2.06-7.03,10.26-8.51,16.19c-1.89-6-3.73-13.65-8.01-17.52c-1.24-1.13-3.05-2.24-5.68-2c-3.96,0.35-9.65,5.32-7.34,10.85
	c2.22,5.31,9.54,8.67,14.35,11.35H2.83C1.27,22.23,0,23.51,0,25.06v11.19c0,1.56,1.27,2.83,2.84,2.83h0.27v36h56.96v-36h0.1
	c1.56,0,2.83-1.27,2.83-2.83V25.06C63,23.51,61.72,22.23,60.17,22.23z M41.77,5.87c2.07-0.31,4.91,1.28,5.18,3.17
	c0.39,2.72-3.35,5.19-5.01,6.34c-2.48,1.72-4.85,2.61-7.18,4.01C35.63,15.75,37.27,6.54,41.77,5.87z M19.23,15.72
	c-2.19-1.47-6.44-4.38-6.34-7.68C13,4.49,18.54,1.55,21.57,4.2c3.8,3.33,5.63,10.97,7.01,16.36C25.38,19.04,22.35,17.81,19.23,15.72
	z M25.11,72.15H6.04V39.08h19.07V72.15z M25.11,36.08H3V25.23h22.11V36.08z M35.12,72.15h-7.06V25.23h7.06V72.15z M57.13,72.15
	H38.05V39.08h19.07V72.15z M60,36.08H38.05V25.23H60V36.08z"/>
</symbol><symbol id="icon-house" viewBox="0 0 74.7 72.35">
<g>
	<path d="M29.5,65.34h16V41.41h-16V65.34L29.5,65.34z M42.57,62.41H32.44V44.34h10.13V62.41z"/>
	<path d="M72.62,39.44l2.08-2.08l-9.91-9.91V0.47H50.97v13.16L37.35,0L0,37.36l2.08,2.08l7.83-7.83v37.8H5.97v2.94h63.88v-2.94
		h-5.06v-37.8L72.62,39.44z M53.91,3.41h7.94v21.1l-7.94-7.94V3.41z M61.85,69.41h-49V28.67l24.5-24.5l24.5,24.5V69.41z"/>
	<path d="M29.75,27.21c0,4.28,3.47,7.75,7.75,7.75c4.28,0,7.75-3.47,7.75-7.75c0-4.28-3.47-7.75-7.75-7.75
		C33.22,19.46,29.75,22.93,29.75,27.21z M37.5,22.24c2.75,0,4.97,2.22,4.97,4.97c0,2.75-2.23,4.97-4.97,4.97
		c-2.75,0-4.97-2.23-4.97-4.97C32.53,24.47,34.76,22.24,37.5,22.24z"/>
	<rect x="16.91" y="41.41" width="3" height="3.94"/>
	<rect x="22.85" y="41.41" width="3" height="3.94"/>
	<rect x="16.91" y="47.41" width="3" height="3.94"/>
	<rect x="22.85" y="47.41" width="3" height="3.94"/>
	<rect x="48.85" y="41.41" width="3" height="3.94"/>
	<rect x="54.78" y="41.41" width="3" height="3.94"/>
	<rect x="48.85" y="47.41" width="3" height="3.94"/>
	<rect x="54.78" y="47.41" width="3" height="3.94"/>
</g>
</symbol><symbol id="icon-html" viewBox="0 0 154.38 195.33">
<path stroke="#231F20" stroke-miterlimit="10" d="M78,0.59L77.19,0.5L0.5,8.54v140.57l76.69,45.63l76.69-45.63V8.54L78,0.59z
	 M143.85,143.41l-66.66,39.66l-66.66-39.66V85.79l66.37,39.51l0.11,7.16l-45.53-27.1l-0.07,6.95l45.71,27.47l0.11,7.35l-45.7-27.19
	l-0.07,6.95l45.71,27.47l46.15-27.62v-6.98l-0.06,0.03v-2.39v-2.86V97.1l20.57-12.28V143.41z M143.8,77.35l-18.24,10.74l-8.42,4.96
	L76.99,69.17l-0.07,6.95l34.32,20.41l-0.3,0.18l-0.74,0.44l-4.88,2.87L76.99,83.16l-0.07,6.95l22.36,13.3l-5.28,3.53l-0.13,0.08
	l-16.89-9.95l-0.07,6.95l11.08,6.53l-11.29,6.78L10.68,78.06l66.14-39.75v0.01L143.8,77.35z M143.85,70.36L76.83,30.85v-0.01
	l-0.01,0l-0.01,0v0.01L10.53,70.31V17.58l66.66-6.99l66.66,6.99V70.36z"/>
</symbol><symbol id="icon-mail" viewBox="0 0 16 16">
<path d="M8,10c-0.27,0-0.5-0.09-1-0.34L0,6v7c0,0.55,0.45,1,1,1h14c0.55,0,1-0.45,1-1V6L9,9.66C8.5,9.91,8.27,10,8,10z M15,2H1
	C0.45,2,0,2.45,0,3v0.76l8,4.21l8-4.21V3C16,2.45,15.55,2,15,2z"/>
</symbol><symbol id="icon-phone" viewBox="0 0 18 18">
<g id="Page-1">
	<g id="Icons-Communication" transform="translate(-85.000000, -126.000000)">
		<g id="phone" transform="translate(85.000000, 126.000000)">
			<path id="Shape" fill="#010101" d="M3.6,7.8c1.4,2.8,3.8,5.1,6.6,6.6l2.2-2.2c0.3-0.3,0.7-0.4,1-0.2c1.1,0.4,2.3,0.6,3.6,0.6
				c0.6,0,1,0.4,1,1V17c0,0.6-0.4,1-1,1C7.6,18,0,10.4,0,1c0-0.6,0.4-1,1-1h3.5c0.6,0,1,0.4,1,1c0,1.2,0.2,2.4,0.6,3.6
				c0.1,0.3,0,0.7-0.2,1L3.6,7.8L3.6,7.8z"/>
		</g>
	</g>
</g>
</symbol><symbol id="icon-tw" viewBox="0 0 17.5 14.66">
<g id="W6EeEF_1_">
	<g>
		<path d="M11.28,0.15c1.74-0.48,3.07,0.26,3.68,1.15c0.69-0.23,1.37-0.47,2.07-0.69c0,0.84-0.54,1.48-0.88,1.73
			c0.7,0.16,1.34-0.48,1.34-0.48c-0.17,0.98-1.04,1.75-1.61,1.98c-0.24,6.59-3.27,10.96-10.38,10.82c-0.54,0,0.08,0-0.46,0
			c-0.42,0-4.29-0.45-5.05-1.84c2.34,0.19,4.01-0.41,4.84-1.15c-0.99-0.29-2.76-0.46-3.07-2.88c0.36,0.1,0.58,0.22,1.23,0.12
			C1.76,8.07,0.38,7.37,0.46,5.22c0.29,0.32,1.1,0.52,1.38,0.46C1.12,5.44-0.19,2.4,0.92,0.84c1.87,1.81,3.85,3.52,7.37,3.69
			C8.51,2.29,9.46,0.79,11.28,0.15z"/>
	</g>
</g>
</symbol><symbol id="icon-youtube" viewBox="0 0 19.98 14.02">
<path d="M17.14,0H2.84C1.27,0,0,1.28,0,2.83v8.35c0,1.56,1.27,2.83,2.84,2.83h14.31c1.56,0,2.83-1.28,2.83-2.83V2.83
	C19.98,1.28,18.7,0,17.14,0z M7.04,10.39V3.62l6.77,3.38L7.04,10.39z"/>
</symbol></svg>